<svg xmlns="http://www.w3.org/2000/svg" xmlns:xlink="http://www.w3.org/1999/xlink" viewBox="0 0 4096 2560"><defs><linearGradient id="a" x1="-269.71" y1="-243.1" x2="4452.52" y2="2571.31" gradientUnits="userSpaceOnUse"><stop offset="0" stop-color="#f14351"/><stop offset="1" stop-color="#6a80ff"/></linearGradient><linearGradient id="b" x1="-269.72" y1="-243.08" x2="4452.51" y2="2571.32" xlink:href="#a"/><linearGradient id="c" x1="-294.84" y1="-200.93" x2="4427.39" y2="2613.48" xlink:href="#a"/><linearGradient id="d" x1="-294.85" y1="-200.92" x2="4427.38" y2="2613.49" xlink:href="#a"/><linearGradient id="e" x1="-522.31" y1="180.74" x2="4199.92" y2="2995.15" xlink:href="#a"/><linearGradient id="f" x1="-291.45" y1="-206.62" x2="4430.78" y2="2607.79" xlink:href="#a"/><linearGradient id="g" x1="171.91" y1="-984.08" x2="4894.14" y2="1830.33" xlink:href="#a"/><linearGradient id="h" x1="-798.51" y1="644.17" x2="3923.72" y2="3458.57" xlink:href="#a"/><linearGradient id="i" x1="-56.84" y1="-600.27" x2="4665.4" y2="2214.13" xlink:href="#a"/><linearGradient id="j" x1="191.73" y1="-1017.34" x2="4913.97" y2="1797.07" xlink:href="#a"/><linearGradient id="k" x1="463.21" y1="-1472.84" x2="5185.44" y2="1341.56" xlink:href="#a"/><linearGradient id="l" x1="-1205.82" y1="1327.57" x2="3516.42" y2="4141.98" xlink:href="#a"/><linearGradient id="m" x1="-1170.45" y1="1268.24" x2="3551.78" y2="4082.64" xlink:href="#a"/><linearGradient id="n" x1="-1188.59" y1="1298.67" x2="3533.64" y2="4113.08" xlink:href="#a"/><linearGradient id="o" x1="-1153.22" y1="1239.33" x2="3569.01" y2="4053.74" xlink:href="#a"/><linearGradient id="p" x1="-797.63" y1="642.68" x2="3924.6" y2="3457.09" xlink:href="#a"/><linearGradient id="q" x1="-737.99" y1="542.63" x2="3984.24" y2="3357.03" xlink:href="#a"/><linearGradient id="r" x1="-767.81" y1="592.66" x2="3954.42" y2="3407.06" xlink:href="#a"/><linearGradient id="s" x1="-708.18" y1="492.6" x2="4014.05" y2="3307.01" xlink:href="#a"/><linearGradient id="t" x1="212.42" y1="-1052.05" x2="4934.65" y2="1762.36" xlink:href="#a"/><linearGradient id="u" x1="272.05" y1="-1152.1" x2="4994.28" y2="1662.3" xlink:href="#a"/><linearGradient id="v" x1="242.23" y1="-1102.08" x2="4964.47" y2="1712.33" xlink:href="#a"/><linearGradient id="w" x1="301.87" y1="-1202.13" x2="5024.1" y2="1612.28" xlink:href="#a"/><linearGradient id="x" x1="-838.44" y1="711.17" x2="3883.79" y2="3525.58" xlink:href="#a"/><linearGradient id="y" x1="-538.06" y1="207.17" x2="4184.17" y2="3021.57" xlink:href="#a"/><linearGradient id="z" x1="37.9" y1="-759.23" x2="4760.13" y2="2055.18" xlink:href="#a"/><linearGradient id="A" x1="-513.41" y1="165.79" x2="4208.83" y2="2980.2" xlink:href="#a"/><linearGradient id="B" x1="-59.53" y1="-595.76" x2="4662.71" y2="2218.65" xlink:href="#a"/><linearGradient id="C" x1="-921.33" y1="850.24" x2="3800.91" y2="3664.64" xlink:href="#a"/><linearGradient id="D" x1="-111.62" y1="-508.36" x2="4610.62" y2="2306.05" xlink:href="#a"/><linearGradient id="E" x1="-1032.88" y1="1037.42" x2="3689.35" y2="3851.82" xlink:href="#a"/><linearGradient id="F" x1="-487.57" y1="122.44" x2="4234.66" y2="2936.85" xlink:href="#a"/><linearGradient id="G" x1="129.93" y1="-913.64" x2="4852.16" y2="1900.76" xlink:href="#a"/><linearGradient id="H" x1="-207.92" y1="-346.78" x2="4514.32" y2="2467.63" xlink:href="#a"/><linearGradient id="I" x1="-1.8" y1="-692.62" x2="4720.44" y2="2121.78" xlink:href="#a"/><linearGradient id="J" x1="-1001.9" y1="985.42" x2="3720.34" y2="3799.83" xlink:href="#a"/><linearGradient id="K" x1="-1001.9" y1="985.44" x2="3720.33" y2="3799.84" xlink:href="#a"/><linearGradient id="L" x1="-19.83" y1="-662.37" x2="4702.4" y2="2152.04" xlink:href="#a"/><linearGradient id="M" x1="-332.05" y1="-138.49" x2="4390.18" y2="2675.92" xlink:href="#a"/><linearGradient id="N" x1="-459.66" y1="75.61" x2="4262.57" y2="2890.02" xlink:href="#a"/><linearGradient id="O" x1="-268.32" y1="-245.43" x2="4453.91" y2="2568.98" xlink:href="#a"/><linearGradient id="P" x1="-650.36" y1="395.59" x2="4071.87" y2="3209.99" xlink:href="#a"/><linearGradient id="Q" x1="-450.72" y1="60.62" x2="4271.51" y2="2875.03" xlink:href="#a"/><linearGradient id="R" x1="-499.15" y1="141.88" x2="4223.08" y2="2956.29" xlink:href="#a"/><linearGradient id="S" x1="-569.1" y1="259.25" x2="4153.13" y2="3073.65" xlink:href="#a"/><linearGradient id="T" x1="-402.3" y1="-20.64" x2="4319.94" y2="2793.77" xlink:href="#a"/><linearGradient id="U" x1="-353.86" y1="-101.9" x2="4368.37" y2="2712.51" xlink:href="#a"/><linearGradient id="V" x1="-305.44" y1="-183.14" x2="4416.79" y2="2631.26" xlink:href="#a"/><linearGradient id="W" x1="-257.01" y1="-264.4" x2="4465.22" y2="2550" xlink:href="#a"/><linearGradient id="X" x1="-186.74" y1="-382.31" x2="4535.49" y2="2432.09" xlink:href="#a"/><linearGradient id="Y" x1="-390.99" y1="-39.61" x2="4331.24" y2="2774.8" xlink:href="#a"/><linearGradient id="Z" x1="-498.61" y1="140.96" x2="4223.63" y2="2955.37" xlink:href="#a"/><linearGradient id="aa" x1="-439.42" y1="41.65" x2="4282.82" y2="2856.06" xlink:href="#a"/><linearGradient id="ab" x1="-342.56" y1="-120.86" x2="4379.67" y2="2693.55" xlink:href="#a"/><linearGradient id="ac" x1="-294.13" y1="-202.12" x2="4428.1" y2="2612.29" xlink:href="#a"/><linearGradient id="ad" x1="-245.71" y1="-283.37" x2="4476.53" y2="2531.04" xlink:href="#a"/><linearGradient id="ae" x1="-197.28" y1="-364.63" x2="4524.96" y2="2449.77" xlink:href="#a"/><linearGradient id="af" x1="-148.85" y1="-445.89" x2="4573.38" y2="2368.52" xlink:href="#a"/><linearGradient id="ag" x1="-92.03" y1="-541.23" x2="4630.21" y2="2273.18" xlink:href="#a"/><linearGradient id="ah" x1="-192.54" y1="-372.57" x2="4529.69" y2="2441.83" xlink:href="#a"/><linearGradient id="ai" x1="-239.66" y1="-293.52" x2="4482.58" y2="2520.88" xlink:href="#a"/><linearGradient id="aj" x1="-286.77" y1="-214.47" x2="4435.46" y2="2599.94" xlink:href="#a"/><linearGradient id="ak" x1="-333.88" y1="-135.43" x2="4388.35" y2="2678.98" xlink:href="#a"/><linearGradient id="al" x1="-380.99" y1="-56.38" x2="4341.24" y2="2758.03" xlink:href="#a"/><linearGradient id="am" x1="-428.11" y1="22.67" x2="4294.13" y2="2837.08" xlink:href="#a"/><linearGradient id="an" x1="-145.43" y1="-451.62" x2="4576.8" y2="2362.79" xlink:href="#a"/><linearGradient id="ao" x1="-98.32" y1="-530.67" x2="4623.92" y2="2283.73" xlink:href="#a"/><linearGradient id="ap" x1="-51.2" y1="-609.72" x2="4671.03" y2="2204.68" xlink:href="#a"/><linearGradient id="aq" x1="-4.1" y1="-688.77" x2="4718.14" y2="2125.64" xlink:href="#a"/></defs><path fill="#222222" d="M0 0h4096v2560H0z"/><path d="M3332.55 1928.37a12.26 12.26 0 01-8.42-3.34l-70.79-66.72a12.29 12.29 0 0116.85-17.89l70.79 66.72a12.29 12.29 0 01-8.43 21.23z" fill="url(#a)"/><path d="M3264 1930.59a12.28 12.28 0 01-9-20.67l66.4-71.14a12.29 12.29 0 0118 16.78l-66.4 71.13a12.27 12.27 0 01-9 3.9z" fill="url(#b)"/><path d="M620.16 369a12.24 12.24 0 01-8.43-3.34l-70.79-66.72A12.29 12.29 0 11557.8 281l70.79 66.71a12.29 12.29 0 01-8.43 21.29z" fill="url(#c)"/><path d="M551.56 371.18a12.3 12.3 0 01-9-20.68L609 279.37a12.29 12.29 0 1118 16.77l-66.4 71.13a12.23 12.23 0 01-9.04 3.91z" fill="url(#d)"/><path d="M2504.92 2111a12.3 12.3 0 01-10.66-18.41l97.22-169.59a12.3 12.3 0 0110.66-6.18 12.31 12.31 0 0110.66 6.16l97.48 169.4a12.3 12.3 0 01-10.65 18.42l-194.69.13zm97.24-157.15l-76 132.55 152.23-.1-38.15-66.3z" fill="url(#e)"/><path d="M1034.28 705.29a12.31 12.31 0 01-8.71-3.61L887.8 563.42a12.29 12.29 0 015.5-20.54l188-50.79a12.29 12.29 0 0115.08 15l-50.27 189a12.29 12.29 0 01-11.87 9.13zm-114.1-144.21l107.71 108.1 19.64-73.85 19.67-74z" fill="url(#f)"/><path d="M3330.06 984.66c-47.5 0-86.15-38.81-86.15-86.51s38.65-86.51 86.15-86.51 86.15 38.81 86.15 86.51-38.65 86.51-86.15 86.51zm0-148.44c-33.95 0-61.58 27.78-61.58 61.93s27.63 61.93 61.58 61.93 61.57-27.78 61.57-61.93-27.63-61.93-61.57-61.93z" fill="url(#g)"/><path d="M658.29 1502.05a12.29 12.29 0 01-12.29-12.29c0-34.15-27.47-61.93-61.23-61.93s-61.24 27.78-61.24 61.93a12.29 12.29 0 11-24.58 0c0-47.7 38.5-86.51 85.82-86.51s85.81 38.81 85.81 86.51a12.29 12.29 0 01-12.29 12.29z" fill="url(#h)"/><path d="M1745.26 553.88a86.18 86.18 0 010-172.35 12.29 12.29 0 010 24.58 61.6 61.6 0 000 123.2 12.29 12.29 0 010 24.57z" fill="url(#i)"/><path d="M3798 1174.31h-146.88a12.28 12.28 0 01-12.28-12.29v-147.64a12.29 12.29 0 0112.28-12.29H3798a12.29 12.29 0 0112.28 12.29V1162a12.28 12.28 0 01-12.28 12.31zm-134.63-24.58h122.34v-123.06h-122.3z" fill="url(#j)"/><path d="M3529.52 397h-146.91a12.29 12.29 0 01-12.29-12.29V237.05a12.29 12.29 0 0112.29-12.29h146.91a12.29 12.29 0 0112.29 12.29v147.64a12.29 12.29 0 01-12.29 12.31zm-134.62-24.6h122.34V249.34H3394.9z" fill="url(#k)"/><path d="M451.74 2337.26c-22.4 0-32.07-18-39.83-32.45-8.48-15.78-13.94-24.71-27.63-24.71a12.29 12.29 0 110-24.57c29.05 0 40.74 21.76 49.28 37.66 7.44 13.85 11.17 19.5 18.18 19.5a12.29 12.29 0 110 24.57z" fill="url(#l)"/><path d="M586.68 2337.26c-22.41 0-32.08-18-39.84-32.45-8.47-15.77-13.94-24.7-27.62-24.7a12.29 12.29 0 010-24.58c29 0 40.74 21.77 49.27 37.66 7.45 13.85 11.17 19.5 18.19 19.5a12.29 12.29 0 110 24.57z" fill="url(#m)"/><path d="M451.74 2337.26a12.29 12.29 0 010-24.57c7 0 10.75-5.65 18.19-19.5 8.54-15.89 20.23-37.66 49.29-37.66a12.29 12.29 0 010 24.58c-13.7 0-19.16 8.93-27.64 24.71-7.76 14.45-17.43 32.44-39.84 32.44z" fill="url(#n)"/><path d="M586.68 2337.26a12.29 12.29 0 110-24.57c7 0 10.74-5.65 18.18-19.5 8.54-15.89 20.23-37.66 49.28-37.66a12.29 12.29 0 110 24.58c-13.69 0-19.15 8.93-27.63 24.71-7.76 14.45-17.43 32.44-39.83 32.44z" fill="url(#o)"/><path d="M1843.83 2280.1a12.29 12.29 0 01-12.29-12.29c0-29.12 21.65-40.87 37.46-49.44 13.8-7.48 19.42-11.24 19.42-18.35a12.29 12.29 0 1124.57 0c0 22.45-17.89 32.15-32.27 39.95-15.72 8.52-24.6 14-24.6 27.84a12.29 12.29 0 01-12.29 12.29z" fill="url(#p)"/><path d="M1843.83 2144.5a12.29 12.29 0 01-12.29-12.29c0-29.12 21.65-40.86 37.46-49.44 13.8-7.48 19.42-11.24 19.42-18.35a12.29 12.29 0 1124.57 0c0 22.45-17.89 32.16-32.27 39.95-15.72 8.53-24.6 14-24.6 27.84a12.29 12.29 0 01-12.29 12.29z" fill="url(#q)"/><path d="M1900.7 2212.31a12.28 12.28 0 01-12.28-12.29c0-7.12-5.62-10.87-19.42-18.36-15.81-8.57-37.46-20.32-37.46-49.45a12.29 12.29 0 0124.58 0c0 13.83 8.88 19.33 24.6 27.85 14.38 7.8 32.27 17.51 32.27 40a12.29 12.29 0 01-12.29 12.25z" fill="url(#r)"/><path d="M1900.7 2076.71a12.28 12.28 0 01-12.28-12.29c0-7.11-5.62-10.86-19.42-18.35-15.81-8.57-37.46-20.32-37.46-49.45a12.29 12.29 0 0124.58 0c0 13.83 8.89 19.33 24.6 27.85 14.38 7.8 32.27 17.51 32.27 40a12.29 12.29 0 01-12.29 12.24z" fill="url(#s)"/><path d="M2869 594.35a12.28 12.28 0 01-12.29-12.28c0-29.13 21.65-40.88 37.46-49.45 13.79-7.48 19.41-11.24 19.41-18.35a12.29 12.29 0 0124.58 0c0 22.45-17.9 32.15-32.27 40-15.72 8.52-24.6 14-24.6 27.85a12.28 12.28 0 01-12.29 12.23z" fill="url(#t)"/><path d="M2869 458.75a12.28 12.28 0 01-12.29-12.28c0-29.13 21.65-40.87 37.46-49.45 13.79-7.48 19.41-11.23 19.41-18.35a12.29 12.29 0 0124.58 0c0 22.45-17.9 32.16-32.27 40-15.72 8.52-24.6 14-24.6 27.84a12.28 12.28 0 01-12.29 12.24z" fill="url(#u)"/><path d="M2925.82 526.56a12.29 12.29 0 01-12.29-12.29c0-7.12-5.62-10.87-19.41-18.36-15.81-8.57-37.46-20.32-37.46-49.44a12.29 12.29 0 1124.58 0c0 13.82 8.88 19.32 24.6 27.84 14.37 7.8 32.27 17.51 32.27 40a12.29 12.29 0 01-12.29 12.25z" fill="url(#v)"/><path d="M2925.82 391a12.29 12.29 0 01-12.29-12.29c0-7.11-5.62-10.86-19.41-18.35-15.81-8.57-37.46-20.32-37.46-49.45a12.29 12.29 0 1124.58 0c0 13.83 8.88 19.33 24.6 27.85 14.38 7.8 32.27 17.51 32.27 39.95a12.29 12.29 0 01-12.29 12.29z" fill="url(#w)"/><path d="M1423 2021.62h-166.52a12.29 12.29 0 010-24.58H1423a12.29 12.29 0 010 24.58z" fill="url(#x)"/><path d="M654.15 1024.23a12.29 12.29 0 01-8.71-21L763.16 885a12.29 12.29 0 1117.42 17.33l-117.72 118.3a12.27 12.27 0 01-8.71 3.6z" fill="url(#y)"/><path d="M2365.08 669.23a41.41 41.41 0 01-35.08-19.46 41.63 41.63 0 0113-57.19 41.3 41.3 0 0157.08 13 41.65 41.65 0 01-13 57.2 41 41 0 01-22 6.45zm15.42-16.79zm-15.5-41.68a16.54 16.54 0 00-8.88 2.59 17 17 0 00-5.27 23.39 16.71 16.71 0 0023.13 5.31 17 17 0 005.26-23.38 16.65 16.65 0 00-10.5-7.48 16.45 16.45 0 00-3.74-.43z" fill="url(#z)"/><path d="M398.9 751a41.75 41.75 0 01-9.26-1 41.08 41.08 0 01-25.85-18.41 41.65 41.65 0 0113-57.2 41.29 41.29 0 0157.08 13.06 41.64 41.64 0 01-13 57.19A41.12 41.12 0 01398.9 751zm15.42-16.79zm-15.54-41.68a16.54 16.54 0 00-8.88 2.59 17 17 0 00-5.28 23.38 16.71 16.71 0 0023.14 5.32 17 17 0 005.24-23.38 16.7 16.7 0 00-10.5-7.49 17 17 0 00-3.72-.42z" fill="url(#A)"/><path d="M3512.06 1574.35a41.49 41.49 0 01-35.11-19.46 41.63 41.63 0 0113-57.2 41.3 41.3 0 0157.09 13.06 41.65 41.65 0 01-13 57.19 41.06 41.06 0 01-21.98 6.41zm15.41-16.79zm-15.53-41.68a16.6 16.6 0 00-8.89 2.59 17 17 0 00-5.27 23.38 16.7 16.7 0 0023.13 5.32 17 17 0 005.27-23.39 16.71 16.71 0 00-10.5-7.48 17.09 17.09 0 00-3.74-.42z" fill="url(#B)"/><path d="M849.49 1947.11a41.49 41.49 0 1122-6.41 41.06 41.06 0 01-22 6.41zm15.41-16.79zm-15.53-41.68a16.62 16.62 0 00-8.88 2.58 17 17 0 00-5.28 23.39 16.7 16.7 0 0023.13 5.32 17 17 0 005.27-23.39 16.71 16.71 0 00-10.5-7.48 17.09 17.09 0 00-3.74-.42z" fill="url(#C)"/><path d="M1382 423.3a41.75 41.75 0 01-9.26-1.05 41.08 41.08 0 01-25.85-18.41 41.66 41.66 0 0113-57.2A41.29 41.29 0 011417 359.7a41.64 41.64 0 01-13 57.19 41.07 41.07 0 01-22 6.41zm15.42-16.79zm-15.54-41.68a16.54 16.54 0 00-8.88 2.59 17 17 0 00-5.27 23.38 16.69 16.69 0 0023.12 5.32 17 17 0 005.27-23.38 16.67 16.67 0 00-10.5-7.49 17 17 0 00-3.74-.42z" fill="url(#D)"/><path d="M370.62 1999.92a12.3 12.3 0 01-10.62-18.41L457.18 1812a12.3 12.3 0 0110.66-6.18 12.31 12.31 0 0110.66 6.18l97.5 169.37a12.3 12.3 0 01-10.65 18.42l-194.69.13zm97.24-157.15l-76 132.55 152.23-.1-38.14-66.28z" fill="url(#E)"/><path d="M2970.72 2275.77a12.29 12.29 0 010-24.57 61.6 61.6 0 000-123.2 12.29 12.29 0 010-24.57 86.17 86.17 0 010 172.34z" fill="url(#F)"/><path d="M2106.48 350.87c-47.5 0-86.15-38.81-86.15-86.51s38.65-86.51 86.15-86.51 86.14 38.81 86.14 86.51-38.62 86.51-86.14 86.51zm0-148.44c-33.95 0-61.58 27.78-61.58 61.93s27.63 61.93 61.58 61.93 61.57-27.78 61.57-61.93-27.62-61.93-61.57-61.93z" fill="url(#G)"/><path d="M3747.77 2132.57a12.32 12.32 0 01-8.71-3.62l-137.77-138.26a12.3 12.3 0 015.5-20.54l188-50.79a12.29 12.29 0 0115.08 15l-50.27 189a12.28 12.28 0 01-11.87 9.14zm-114.11-144.22l107.72 108.11 19.62-73.86 19.67-74z" fill="url(#H)"/><path d="M3194.57 1318.9a12.29 12.29 0 01-8.71-21l117.72-118.3A12.29 12.29 0 113321 1197l-117.72 118.3a12.27 12.27 0 01-8.71 3.6z" fill="url(#I)"/><path d="M1214.3 2330.81a12.26 12.26 0 01-8.42-3.34l-70.79-66.72a12.29 12.29 0 1116.85-17.89l70.8 66.72a12.29 12.29 0 01-8.44 21.23z" fill="url(#J)"/><path d="M1145.7 2333a12.28 12.28 0 01-9-20.67l66.4-71.13a12.29 12.29 0 0118 16.76l-66.4 71.14a12.27 12.27 0 01-9 3.9z" fill="url(#K)"/><path d="M2122.37 577h-166.49a12.29 12.29 0 010-24.58h166.49a12.29 12.29 0 010 24.58z" fill="url(#L)"/><path d="M2972.64 1761.12H1123.36a92.77 92.77 0 01-92.67-92.67v-776.9a92.77 92.77 0 0192.67-92.67h1849.28a92.77 92.77 0 0192.67 92.67v776.9a92.77 92.77 0 01-92.67 92.67zM1123.36 839.84a51.77 51.77 0 00-51.71 51.71v776.9a51.77 51.77 0 0051.71 51.71h1849.28a51.77 51.77 0 0051.71-51.71v-776.9a51.77 51.77 0 00-51.71-51.71z" fill="url(#M)"/><path d="M1532.35 1507.12s-11.54 0-11.54 11.51v100.11s0 11.54 11.54 11.54h1026.41s11.53 0 11.53-11.54v-100.11s0-11.51-11.53-11.51z" fill="url(#N)"/><path d="M2643.4 1507.12s-11.54 0-11.54 11.51v100.11s0 11.54 11.54 11.54h264.34s11.53 0 11.53-11.54v-100.11s0-11.51-11.53-11.51z" fill="url(#O)"/><path d="M1185.81 1507.12s-11.54 0-11.54 11.51v100.11s0 11.54 11.54 11.54h264.33s11.54 0 11.54-11.54v-100.11s0-11.51-11.54-11.51z" fill="url(#P)"/><path d="M1719.57 1322.35s-11.51 0-11.51 11.52V1434s0 11.53 11.51 11.53h100.11s11.54 0 11.54-11.53v-100.13s0-11.52-11.54-11.52z" fill="url(#Q)"/><path d="M1534.8 1322.35s-11.53 0-11.53 11.52V1434s0 11.53 11.53 11.53h100.11s11.52 0 11.52-11.53v-100.13s0-11.52-11.52-11.52z" fill="url(#R)"/><path d="M1185.81 1322.35s-11.54 0-11.54 11.52V1434s0 11.53 11.54 11.53h264.33s11.54 0 11.54-11.53v-100.13s0-11.52-11.54-11.52z" fill="url(#S)"/><path d="M1904.34 1322.35s-11.53 0-11.53 11.52V1434s0 11.53 11.53 11.53h100.11s11.52 0 11.52-11.53v-100.13s0-11.52-11.52-11.52z" fill="url(#T)"/><path d="M2089.11 1322.35s-11.52 0-11.52 11.52V1434s0 11.53 11.52 11.53h100.11s11.53 0 11.53-11.53v-100.13s0-11.52-11.53-11.52z" fill="url(#U)"/><path d="M2273.86 1322.35s-11.53 0-11.53 11.52V1434s0 11.53 11.53 11.53H2374s11.52 0 11.52-11.53v-100.13s0-11.52-11.52-11.52z" fill="url(#V)"/><path d="M2458.63 1322.35s-11.52 0-11.52 11.52V1434s0 11.53 11.52 11.53h100.11s11.54 0 11.54-11.53v-100.13s0-11.52-11.54-11.52z" fill="url(#W)"/><path d="M2643.4 1322.35s-11.54 0-11.54 11.52V1434s0 11.53 11.54 11.53h266.81s11.52 0 11.52-11.53v-100.13s0-11.52-11.52-11.52z" fill="url(#X)"/><path d="M1637.46 1137.58s-11.54 0-11.54 11.52v100.11s0 11.53 11.54 11.53h100.11s11.53 0 11.53-11.53V1149.1s0-11.52-11.53-11.52z" fill="url(#Y)"/><path d="M1185.81 1137.58s-11.54 0-11.54 11.52v100.11s0 11.53 11.54 11.53H1368s11.53 0 11.53-11.53V1149.1s0-11.52-11.53-11.52z" fill="url(#Z)"/><path d="M1452.69 1137.58s-11.54 0-11.54 11.52v100.11s0 11.53 11.54 11.53h100.11s11.53 0 11.53-11.53V1149.1s0-11.52-11.53-11.52z" fill="url(#aa)"/><path d="M1822.21 1137.58s-11.54 0-11.54 11.52v100.11s0 11.53 11.54 11.53h100.11s11.53 0 11.53-11.53V1149.1s0-11.52-11.53-11.52z" fill="url(#ab)"/><path d="M2007 1137.58s-11.52 0-11.52 11.52v100.11s0 11.53 11.52 11.53h100.11s11.53 0 11.53-11.53V1149.1s0-11.52-11.53-11.52z" fill="url(#ac)"/><path d="M2191.75 1137.58s-11.54 0-11.54 11.52v100.11s0 11.53 11.54 11.53h100.11s11.51 0 11.51-11.53V1149.1s0-11.52-11.51-11.52z" fill="url(#ad)"/><path d="M2376.52 1137.58s-11.52 0-11.52 11.52v100.11s0 11.53 11.52 11.53h100.11s11.53 0 11.53-11.53V1149.1s0-11.52-11.53-11.52z" fill="url(#ae)"/><path d="M2561.29 1137.58s-11.54 0-11.54 11.52v100.11s0 11.53 11.54 11.53h100.11s11.51 0 11.51-11.53V1149.1s0-11.52-11.51-11.52z" fill="url(#af)"/><path d="M2746.06 1137.58s-11.52 0-11.52 11.52v100.11s0 11.53 11.52 11.53h164.15s11.54 0 11.54-11.53V1149.1s0-11.52-11.54-11.52z" fill="url(#ag)"/><path d="M2084.54 952.79s-11.52 0-11.52 11.54v100.11s0 11.53 11.52 11.53h100.12s11.52 0 11.52-11.53V964.33s0-11.54-11.52-11.54z" fill="url(#ah)"/><path d="M1904.79 952.79s-11.52 0-11.52 11.54v100.11s0 11.53 11.52 11.53h100.12s11.52 0 11.52-11.53V964.33s0-11.54-11.52-11.54z" fill="url(#ai)"/><path d="M1725 952.79s-11.54 0-11.54 11.54v100.11s0 11.53 11.54 11.53h100.11s11.51 0 11.51-11.53V964.33s0-11.54-11.51-11.54z" fill="url(#aj)"/><path d="M1545.31 952.79s-11.54 0-11.54 11.54v100.11s0 11.53 11.54 11.53h100.11s11.51 0 11.51-11.53V964.33s0-11.54-11.51-11.54z" fill="url(#ak)"/><path d="M1365.56 952.79s-11.54 0-11.54 11.54v100.11s0 11.53 11.54 11.53h100.11s11.53 0 11.53-11.53V964.33s0-11.54-11.53-11.54z" fill="url(#al)"/><path d="M1185.81 952.79s-11.54 0-11.54 11.54v100.11s0 11.53 11.54 11.53h100.11s11.53 0 11.53-11.53V964.33s0-11.54-11.53-11.54z" fill="url(#am)"/><path d="M2264.28 952.79s-11.51 0-11.51 11.54v100.11s0 11.53 11.51 11.53h100.11s11.54 0 11.54-11.53V964.33s0-11.54-11.54-11.54z" fill="url(#an)"/><path d="M2444.05 952.79s-11.53 0-11.53 11.54v100.11s0 11.53 11.53 11.53h100.09s11.54 0 11.54-11.53V964.33s0-11.54-11.54-11.54z" fill="url(#ao)"/><path d="M2623.8 952.79s-11.53 0-11.53 11.54v100.11s0 11.53 11.53 11.53h100.09s11.54 0 11.54-11.53V964.33s0-11.54-11.54-11.54z" fill="url(#ap)"/><path d="M2803.53 952.79s-11.53 0-11.53 11.54v100.11s0 11.53 11.53 11.53h100.11s11.52 0 11.52-11.53V964.33s0-11.54-11.52-11.54z" fill="url(#aq)"/></svg>