<svg xmlns="http://www.w3.org/2000/svg" viewBox="0 0 3818.82 761.74"><defs><style>.cls-1{fill:none;stroke:#000;stroke-linecap:round;stroke-linejoin:round;stroke-width:20px;}</style></defs><path class="cls-1 squiggle" fill="none" stroke="#bc85ff" stroke-miterlimit="10" stroke-width="18" d="M345.92,518.8q-19.2,44.82-52,69.6-32.81,24-71.2,29.6-36,2.4-56,2.4-15.19,0-33.2-1.6T94.72,614q-43.2-7.2-68-19.2-25.6-10.38-12-55.2,14.4-44,41.6-36,66.41,15.21,88,15.2h20.8a84.47,84.47,0,0,0,16.8-1.6q21.6-3.18,46.4-20.8,23.2-17.58,20-48.8,0-12.78-5.6-28.8-6.41-15.18-28.8-28.8t-74.4-32q-52-18.39-80-53.6-28.8-36.78-28.8-89.6a213.74,213.74,0,0,1,11.2-68q10.39-32,30.4-55.2a172.39,172.39,0,0,1,52.8-38.4q31.2-14.4,80.8-14.4a289,289,0,0,1,29.2,1.6q15.6,1.62,34,4.8,18.4,4,36,9.2a170.05,170.05,0,0,1,33.6,14l-28,79.2Q277.92,130,229.92,130q-36-2.4-64,15.2-29.59,19.2-29.6,56a49.68,49.68,0,0,0,5.6,22.4q6.41,12,15.2,18.4,12.8,6.41,24.8,11.6t24,10q12,4.8,21.6,9.2t18.4,8.4a313.57,313.57,0,0,1,48,29.6q24.79,18.42,45.6,48,4.8,8.82,8.8,17.6a107,107,0,0,1,6.4,18.4q2.4,10.41,4,20.4a128.78,128.78,0,0,1,1.6,20.4Q361.12,480.42,345.92,518.8Z"/><path class="cls-1" d="M727.59,219.6q29.6,32,40,76.8a439.73,439.73,0,0,1,7.2,44.4,424.51,424.51,0,0,1,2.4,46,369.56,369.56,0,0,1-2.4,42.4q-2.4,20.82-7.2,44-9.6,44.82-40,81.6A186.28,186.28,0,0,1,698,581.6a181,181,0,0,1-34.4,19.6q-36,16.8-78.4,16.8a195.28,195.28,0,0,1-76.8-15.2q-37.61-14.4-66.4-48a156.92,156.92,0,0,1-24.8-36.4A217.08,217.08,0,0,1,402,477.2a443.42,443.42,0,0,1-7.2-44,421.05,421.05,0,0,1-2.4-46.4,366.63,366.63,0,0,1,2.4-42.8q2.4-20.4,7.2-42.8,9.6-46.4,40-80.8a169.94,169.94,0,0,1,64-47.2,202.21,202.21,0,0,1,78.4-16q37.61,0,76.8,15.2A194.58,194.58,0,0,1,696,192,215.68,215.68,0,0,1,727.59,219.6ZM584.39,528.4q32,0,50.4-12,18.4-13.59,26.4-32a202,202,0,0,0,6.8-23.6,250.5,250.5,0,0,0,4.4-26,240,240,0,0,0,3.2-25.2q.79-11.58.8-23.6t-.4-23.2q-.4-11.19-1.2-24.8-1.6-13.59-4.4-26.4t-6.8-25.6v.8q-8-20-27.2-34.4-20-13.59-51.2-13.6-36.81,0-54.4,13.6A68.19,68.19,0,0,0,506,286q-10.39,26.4-11.2,52-.81,13.62-1.2,24.8t-.4,23.2q0,13.62.4,25.2t1.2,25.2A123.46,123.46,0,0,0,506,485.2a64.52,64.52,0,0,0,24.8,31.2Q547.59,528.4,584.39,528.4Z"/><path class="cls-1" d="M792,663.6q22.39-8.79,29.6-12.8v1.6q16-10.38,23.2-20c2.66-3.72,4.93-7.2,6.8-10.4a51.87,51.87,0,0,0,4.4-9.6,283.14,283.14,0,0,0,4.8-33.6q.79-8.79.8-18V180.4H964V538.8q0,11.22-.4,21.6t-.4,20.8a289.77,289.77,0,0,1-5.6,40.8,221.05,221.05,0,0,1-7.2,21.2q-4,10-8.8,20.4a157.28,157.28,0,0,1-27.2,36.8,162,162,0,0,1-17.6,14Q888,720.4,880,726q-8.81,4.8-16.4,8.4t-14.8,6.8q-8.81,2.4-16.4,4.4t-14.8,3.6c-5.33.53-10,.92-14,1.2s-7.87.66-11.6,1.2q-20.81,2.4-23.2-37.6Q767.18,673.2,792,663.6ZM912.78,138a62.65,62.65,0,0,1-42.4-16q-20.8-16.8-20.8-48,0-25.59,19.2-44.8,17.6-19.2,44-19.2,23.21,0,42.4,17.6,19.2,18.42,19.2,47.2t-17.6,46.4Q937.58,138,912.78,138Z"/><path class="cls-1" d="M1399.42,591.6q-44,20.82-89.2,26.8a689.35,689.35,0,0,1-90.8,6,385.37,385.37,0,0,1-71.6-6.4q-34-6.39-58.8-22.4a108.34,108.34,0,0,1-40.4-42.4q-14.8-27.18-14.8-69.6V164.4h104V477.2q0,17.61,8.4,28.4a60.84,60.84,0,0,0,21.2,17.2,85.42,85.42,0,0,0,27.2,8.8,184.91,184.91,0,0,0,28.8,2.4,194.74,194.74,0,0,0,39.6-3.6q17.19-3.6,34-8.4V164.4h102.4Z"/><path class="cls-1" d="M2021,518.8q-19.2,44.82-52,69.6-32.82,24-71.2,29.6-36,2.4-56,2.4-15.21,0-33.2-1.6t-38.8-4.8q-43.2-7.2-68-19.2-25.62-10.38-12-55.2,14.4-44,41.6-36,66.39,15.21,88,15.2h20.8a84.61,84.61,0,0,0,16.8-1.6q21.6-3.18,46.4-20.8,23.19-17.58,20-48.8,0-12.78-5.6-28.8-6.42-15.18-28.8-28.8t-74.4-32q-52-18.39-80-53.6-28.8-36.78-28.8-89.6a213.46,213.46,0,0,1,11.2-68q10.38-32,30.4-55.2a172.15,172.15,0,0,1,52.8-38.4q31.2-14.4,80.8-14.4a289.19,289.19,0,0,1,29.2,1.6q15.6,1.62,34,4.8,18.39,4,36,9.2a170.55,170.55,0,0,1,33.6,14l-28,79.2Q1953,130,1905,130q-36-2.4-64,15.2-29.61,19.2-29.6,56a49.55,49.55,0,0,0,5.6,22.4q6.39,12,15.2,18.4,12.78,6.41,24.8,11.6t24,10q12,4.8,21.6,9.2t18.4,8.4a314.54,314.54,0,0,1,48,29.6q24.78,18.42,45.6,48,4.8,8.82,8.8,17.6a107.86,107.86,0,0,1,6.4,18.4q2.4,10.41,4,20.4a130,130,0,0,1,1.6,20.4Q2036.19,480.42,2021,518.8Z"/><path class="cls-1" d="M2219.88,48.4V174.8h88q21.6,0,21.6,29.6,0,56-40,56h-69.6V486.8q0,20.82,10.8,28.4a91.14,91.14,0,0,0,22,11.6q18.39,3.21,52.8,3.2,20,0,22.4,39.2,1.59,19.2-4,29.2t-18.4,14q-16,3.21-43.6,6.4t-50.8,0q-26.4-3.18-44.4-15.2a99.45,99.45,0,0,1-29.2-29.6q-11.22-16.8-16-39.2a228.66,228.66,0,0,1-4.8-48V260.4h-77.6V174.8h77.6V74.8Z"/><path class="cls-1" d="M2746,591.6a300.08,300.08,0,0,1-89.2,26.8,689.24,689.24,0,0,1-90.8,6,385.44,385.44,0,0,1-71.6-6.4q-34-6.39-58.8-22.4-25.61-15.18-40.4-42.4t-14.8-69.6V164.4h104V477.2q0,17.61,8.4,28.4a60.93,60.93,0,0,0,21.2,17.2,85.5,85.5,0,0,0,27.2,8.8A184.91,184.91,0,0,0,2570,534a194.74,194.74,0,0,0,39.6-3.6q17.2-3.6,34-8.4V164.4H2746Z"/><path class="cls-1" d="M2847.87,557.2a154.34,154.34,0,0,1-25.6-40.8,233.66,233.66,0,0,1-14.4-46.4,297.6,297.6,0,0,1-7.2-48.8q-1.61-24.78-1.6-47.2v-.8a481.89,481.89,0,0,1,6.8-58,289.18,289.18,0,0,1,15.6-55.6,181.1,181.1,0,0,1,26-48,141.6,141.6,0,0,1,40.4-36q30.39-18.39,81.6-20a293.18,293.18,0,0,1,55.2,2q27.2,3.6,53.6,8.4l.8-152.8h102.4v516q0,84-83.2,84h-76Q2899.87,613.2,2847.87,557.2Zm169.6-36h24q37.59,0,37.6-20.8V245.2q-20.81-4-36.4-6a250.8,250.8,0,0,0-31.6-2q-32,0-53.6,12.4a98.18,98.18,0,0,0-34.4,32.4,132.58,132.58,0,0,0-18,45.2,250.54,250.54,0,0,0-5.2,50.8q.8,18.4,2.8,38.8a199.12,199.12,0,0,0,7.6,38.8,119.44,119.44,0,0,0,16,34.4,61.08,61.08,0,0,0,28,22.4Q2974.27,521.22,3017.47,521.2Z"/><path class="cls-1" d="M3314.51,138q-23.22,0-42.4-16-19.2-16.8-19.2-48,0-27.18,17.6-45.6,18.39-18.39,44-18.4a49.94,49.94,0,0,1,22.4,5.6,121.93,121.93,0,0,1,19.2,12.8,91.32,91.32,0,0,1,12.8,20q6.39,10.41,6.4,25.6,0,29.61-17.6,45.6Q3340.91,136.4,3314.51,138Zm51.2,42.4v336q0,105.6-59.2,105.6h-15.2q-28.8,0-28.8-28.8V180.4Z"/><path class="cls-1" d="M3759.22,219.6q29.59,32,40,76.8a439.73,439.73,0,0,1,7.2,44.4,424.51,424.51,0,0,1,2.4,46,369.56,369.56,0,0,1-2.4,42.4q-2.4,20.82-7.2,44-9.6,44.82-40,81.6a185.85,185.85,0,0,1-29.6,26.8,181,181,0,0,1-34.4,19.6q-36,16.8-78.4,16.8a195.28,195.28,0,0,1-76.8-15.2q-37.61-14.4-66.4-48a156.92,156.92,0,0,1-24.8-36.4,217.08,217.08,0,0,1-15.2-41.2,443.42,443.42,0,0,1-7.2-44,421.05,421.05,0,0,1-2.4-46.4,366.63,366.63,0,0,1,2.4-42.8q2.4-20.4,7.2-42.8,9.6-46.4,40-80.8a169.94,169.94,0,0,1,64-47.2,202.21,202.21,0,0,1,78.4-16q37.61,0,76.8,15.2a194.58,194.58,0,0,1,34.8,19.6A215.68,215.68,0,0,1,3759.22,219.6ZM3616,528.4q32,0,50.4-12,18.4-13.59,26.4-32a202,202,0,0,0,6.8-23.6,250.5,250.5,0,0,0,4.4-26,240,240,0,0,0,3.2-25.2q.8-11.58.8-23.6t-.4-23.2q-.4-11.19-1.2-24.8-1.61-13.59-4.4-26.4t-6.8-25.6v.8q-8-20-27.2-34.4-20-13.59-51.2-13.6-36.8,0-54.4,13.6a68.19,68.19,0,0,0-24.8,33.6q-10.39,26.4-11.2,52-.8,13.62-1.2,24.8t-.4,23.2q0,13.62.4,25.2t1.2,25.2a123.46,123.46,0,0,0,11.2,48.8,64.52,64.52,0,0,0,24.8,31.2Q3579.22,528.4,3616,528.4Z"/></svg>