<svg xmlns="http://www.w3.org/2000/svg" xmlns:xlink="http://www.w3.org/1999/xlink" viewBox="0 0 3840 1000" xmlns:v="https://vecta.io/nano"><defs><linearGradient id="A" x1="263.49" y1="1456.38" x2="3576.51" y2="-456.38" gradientUnits="userSpaceOnUse"><stop offset="0" stop-color="#6a80ff"/><stop offset="1" stop-color="#68aac2"/></linearGradient><path id="B" d="M1297.74,661.09s-8.18,0-8.18,8.17v71s0,8.18,8.18,8.18h187.5s8.18,0,8.18-8.18v-71s0-8.17-8.18-8.17Z"/><path id="C" d="M773.53,530s-8.18,0-8.18,8.17v71s0,8.19,8.18,8.19h71s8.17,0,8.17-8.19v-71s0-8.17-8.17-8.17Z"/><path id="D" d="M904.58,530s-8.16,0-8.16,8.17v71s0,8.19,8.16,8.19h71s8.18,0,8.18-8.19v-71s0-8.17-8.18-8.17Z"/><path id="E" d="M584.23,399s-8.18,0-8.18,8.17v71s0,8.18,8.18,8.18h71s8.18,0,8.18-8.18v-71s0-8.17-8.18-8.17Z"/><path id="F" d="M901.34,267.91s-8.17,0-8.17,8.18v71s0,8.18,8.17,8.18h71s8.17,0,8.17-8.18v-71s0-8.18-8.17-8.18Z"/><path id="G" d="M518.86,267.91s-8.18,0-8.18,8.18v71s0,8.18,8.18,8.18h71s8.17,0,8.17-8.18v-71s0-8.18-8.17-8.18Z"/><path id="H" d="M391.37,267.91s-8.18,0-8.18,8.18v71s0,8.18,8.18,8.18h71s8.18,0,8.18-8.18v-71s0-8.18-8.18-8.18Z"/></defs><path d="M0 0h3840v1000H0z" fill="url(#A)"/><path d="M3840 778.53L2806.61 296.04 1296.96 1000H3840V778.53z" fill="#333"/><g fill="#4d4d4d"><path d="M3441.47 0h-1268.9l634.04 296.04L3441.47 0z"/><path d="M3840 778.53V0h-398.53l-634.86 296.04L3840 778.53z"/></g><g fill="#f2f2f2"><path d="M1531.27 841.26H219.58a65.8 65.8 0 0 1-65.73-65.73V224.47a65.8 65.8 0 0 1 65.73-65.73h1311.69a65.8 65.8 0 0 1 65.73 65.73v551.06a65.8 65.8 0 0 1-65.73 65.73zM219.58 187.8a36.72 36.72 0 0 0-36.68 36.67v551.06a36.72 36.72 0 0 0 36.68 36.67h1311.69a36.72 36.72 0 0 0 36.73-36.67V224.47a36.72 36.72 0 0 0-36.68-36.67zm290.09 473.29s-8.18 0-8.18 8.17v71s0 8.18 8.18 8.18h728s8.18 0 8.18-8.18v-71s0-8.17-8.18-8.17z"/><use xlink:href="#B"/><use xlink:href="#B" x="-1033.87"/><path d="M642.47 530s-8.17 0-8.17 8.17v71s0 8.19 8.17 8.19h71s8.18 0 8.18-8.19v-71s0-8.17-8.18-8.17zm-131.05 0s-8.19 0-8.19 8.17v71s0 8.19 8.19 8.19h71s8.17 0 8.17-8.19v-71s0-8.17-8.17-8.17zm-247.55 0s-8.18 0-8.18 8.17v71s0 8.19 8.18 8.19h187.5s8.18 0 8.18-8.19v-71s0-8.17-8.18-8.17z"/><use xlink:href="#C"/><use xlink:href="#D"/><use xlink:href="#C" x="262.1"/><use xlink:href="#D" x="262.1"/><path d="M1297.74,530s-8.18,0-8.18,8.17v71s0,8.19,8.18,8.19H1487s8.17,0,8.17-8.19v-71s0-8.17-8.17-8.17Z"/><use xlink:href="#E"/><path d="M263.87,399s-8.18,0-8.18,8.17v71s0,8.18,8.18,8.18H393.12s8.19,0,8.19-8.18v-71s0-8.17-8.19-8.17Z"/><use xlink:href="#E" x="-131.06"/><use xlink:href="#E" x="131.04"/><path d="M846.33 399s-8.17 0-8.17 8.17v71s0 8.18 8.17 8.18h71s8.18 0 8.18-8.18v-71s0-8.17-8.18-8.17zm131.06 0s-8.19 0-8.19 8.17v71s0 8.18 8.19 8.18h71s8.17 0 8.17-8.18v-71s0-8.17-8.17-8.17zm131.05 0s-8.17 0-8.17 8.17v71s0 8.18 8.17 8.18h71s8.18 0 8.18-8.18v-71s0-8.17-8.18-8.17zm131.06 0s-8.18 0-8.18 8.17v71s0 8.18 8.18 8.18h71s8.17 0 8.17-8.18v-71s0-8.17-8.17-8.17zm131.05 0s-8.16 0-8.16 8.17v71s0 8.18 8.16 8.18H1487s8.18 0 8.18-8.18v-71s0-8.17-8.18-8.17z"/><use xlink:href="#F"/><use xlink:href="#F" x="-127.5"/><path d="M646.35,267.91s-8.18,0-8.18,8.18v71s0,8.18,8.18,8.18h71s8.16,0,8.16-8.18v-71s0-8.18-8.16-8.18Z"/><use xlink:href="#G"/><use xlink:href="#H"/><use xlink:href="#H" x="-127.5"/><path d="M1028.84,267.91s-8.17,0-8.17,8.18v71s0,8.18,8.17,8.18h71s8.19,0,8.19-8.18v-71s0-8.18-8.19-8.18Z"/><use xlink:href="#H" x="764.97"/><use xlink:href="#H" x="892.47"/><use xlink:href="#G" x="892.46"/></g><text transform="translate(1662.79 331.56)" font-size="205.18" fill="#fff" font-family="AppleSDGothicNeoH00">NUMC</text><path d="M1586 374h2254v12H1586z" fill="#f2f2f2"/><text transform="translate(1679.39 532.7)" fill="#fff" font-family="AppleSDGothicNeoH00" font-size="128.7">Change the keyboard layout or <tspan y="154.44" x="0">alter the function of the keys.</tspan></text><path d="M0 374h163v12H0z" fill="#f2f2f2"/><path d="M3651.67 746a96.41 96.41 0 0 0-30.48 187.88c4.82.9 6.38-2.09 6.38-4.63v-18c-26.82 5.83-32.4-11.37-32.4-11.37-4.39-11.15-10.71-14.11-10.71-14.11-8.75-6 .66-5.86.66-5.86 9.68.68 14.78 9.94 14.78 9.94 8.59 14.73 22.55 10.48 28 8 .86-6.23 3.36-10.49 6.12-12.89-21.41-2.45-43.92-10.71-43.92-47.65a37.31 37.31 0 0 1 9.93-25.87c-1-2.44-4.3-12.24.94-25.52 0 0 8.1-2.58 26.52 9.88a91.55 91.55 0 0 1 48.28 0c18.4-12.46 26.48-9.88 26.48-9.88 5.25 13.28 1.95 23.09.95 25.52a37.19 37.19 0 0 1 9.92 25.87c0 37-22.55 45.19-44 47.57 3.45 3 6.61 8.86 6.61 17.85v26.46c0 2.56 1.54 5.57 6.43 4.63A96.42 96.42 0 0 0 3651.67 746zm-355.22 200.55l159.65-74.45-62.38-29.13-119.57 55.77 22.3 47.81z" fill="#fff"/><path d="M3456.1 813.87l-159.78-74.6-22.32 47.8 119.72 55.9 62.38-29.1z" fill="#ccc"/><path d="M3456.1 813.89l-62.38 29.08 62.38 29.13v-58.21zM3235 849.67v.01l.01-.01h-.01zm.03-78.31l-.03-.01v.02l.03-.01z" fill="#fff"/></svg>